<svg xmlns="http://www.w3.org/2000/svg" width="64" height="64" viewBox="0 0 64 64">
    <defs>
        <linearGradient id="a" x1="100%" x2="1.132%" y1="0%" y2="98.868%">
            <stop offset="0%" stop-color="#5879F1"/>
            <stop offset="100%" stop-color="#00DBE5"/>
        </linearGradient>
    </defs>
    <path fill="url(#a)" fill-rule="evenodd" d="M33.64 0C24.144 0 16.164 3.072 9.698 9.216 3.233 15.361 0 22.956 0 32c0 9.107 3.233 16.717 9.698 22.83C16.164 60.943 24.144 64 33.64 64c6.684 0 12.697-1.575 18.038-4.725 5.341-3.15 9.448-7.283 12.322-12.398V27.415H36.388v13.848h11.495v2.9c-3.186 3.681-7.715 5.521-13.587 5.521-5.498 0-9.84-1.622-13.025-4.865-3.186-3.244-4.78-7.517-4.78-12.819 0-5.177 1.516-9.341 4.546-12.491 3.03-3.15 7.137-4.725 12.322-4.725 6.372 0 11.588 2.838 15.648 8.514l11.245-9.544C54.005 4.584 45.134 0 33.64 0z"/>
</svg>
