<svg xmlns="http://www.w3.org/2000/svg" xmlns:xlink="http://www.w3.org/1999/xlink" width="868" height="207" viewBox="0 0 868 207">
    <defs>
        <path id="b" d="M301.197 190c-20.096 0-36.987 6.555-50.67 19.666C236.841 222.777 230 238.983 230 258.283c0 19.433 6.842 35.672 20.526 48.716 13.684 13.045 30.575 19.567 50.671 19.567 14.147 0 26.873-3.361 38.177-10.083 11.304-6.722 19.998-15.54 26.08-26.455V248.5h-58.441v29.549h24.33v6.19c-6.744 7.853-16.33 11.78-28.757 11.78-11.635 0-20.824-3.462-27.567-10.383-6.743-6.922-10.114-16.04-10.114-27.353 0-11.048 3.206-19.933 9.618-26.654 6.413-6.722 15.106-10.083 26.08-10.083 13.485 0 24.525 6.056 33.119 18.169l23.799-20.365C344.299 199.783 325.525 190 301.197 190zm126.465 2.396h-34.111V324.17h88.253v-30.947h-54.142V192.396zM607.47 349l-17.183-35.811h-47.003l-4.76 10.98h-36.689L561.331 190h10.907l71.92 159H607.47zm-29.281-63.364l-11.304-30.548-11.503 30.548h22.807zm157.601-93.24v65.887L664.79 190h-10.908v134.17h34.112v-66.885l70.999 69.28H769.9v-134.17h-34.11zM868.8 190c-19.833 0-36.59 6.555-50.275 19.666-13.684 13.111-20.526 29.317-20.526 48.617 0 19.433 6.809 35.672 20.427 48.716 13.618 13.045 30.343 19.567 50.175 19.567 13.222 0 25.055-3.095 35.5-9.284 10.445-6.19 18.642-14.875 24.592-26.056l-25.98-17.77c-8.462 14.376-19.833 21.564-34.112 21.564-10.577 0-19.17-3.328-25.782-9.983-6.61-6.655-9.916-15.507-9.916-26.554 0-11.048 3.339-19.966 10.016-26.755 6.676-6.788 15.237-10.182 25.682-10.182 14.28 0 25.65 7.188 34.111 21.563l25.98-17.77c-5.95-11.18-14.146-19.866-24.591-26.055-10.445-6.19-22.212-9.284-35.301-9.284zm178.821 2.396H956.79V324.17H1050v-30.947h-59.1v-22.96h40.458v-28.751H990.9v-18.17h56.72v-30.946z"/>
        <filter id="a" width="110.5%" height="154.1%" x="-5.2%" y="-18.2%" filterUnits="objectBoundingBox">
            <feOffset dy="14" in="SourceAlpha" result="shadowOffsetOuter1"/>
            <feGaussianBlur in="shadowOffsetOuter1" result="shadowBlurOuter1" stdDeviation="12"/>
            <feColorMatrix in="shadowBlurOuter1" values="0 0 0 0 0.839215686 0 0 0 0 0.854901961 0 0 0 0 0.905882353 0 0 0 0.7 0"/>
        </filter>
    </defs>
    <g fill="none" fill-rule="evenodd" transform="translate(-206 -180)">
        <use fill="#000" filter="url(#a)" xlink:href="#b"/>
        <use fill="#FFF" xlink:href="#b"/>
    </g>
</svg>
